<svg width="40" height="40" viewBox="0 0 40 40" fill="none" xmlns="http://www.w3.org/2000/svg"><path d="M37.5 20c0 9.66-7.831 17.5-17.5 17.5S2.5 29.66 2.5 20c0-9.669 7.831-17.5 17.5-17.5S37.5 10.331 37.5 20" fill="#283544"/><path d="M28.203 15.572c-.096.055-2.37 1.231-2.37 3.838.108 2.973 2.87 4.015 2.917 4.015-.047.056-.417 1.42-1.512 2.85-.868 1.233-1.833 2.475-3.297 2.475-1.393 0-1.893-.821-3.5-.821-1.726 0-2.214.821-3.536.821-1.464 0-2.5-1.309-3.416-2.53-1.19-1.597-2.202-4.104-2.238-6.51-.024-1.276.239-2.53.905-3.595.94-1.487 2.619-2.496 4.452-2.53 1.404-.043 2.654.9 3.511.9.822 0 2.358-.9 4.095-.9.75.001 2.75.212 3.989 1.987M20 13.332c-.25-1.166.44-2.33 1.083-3.074.821-.898 2.119-1.508 3.237-1.508.072 1.165-.38 2.307-1.19 3.14-.726.898-1.976 1.574-3.13 1.441" fill="#fff"/></svg>