<svg width="40" height="40" viewBox="0 0 40 40" fill="none" xmlns="http://www.w3.org/2000/svg"><path d="M37.502 20.388c0-1.439-.119-2.489-.377-3.578H20.36v6.495h9.842c-.199 1.614-1.27 4.044-3.651 5.678l-.034.217 5.302 4.025.367.035c3.373-3.052 5.317-7.544 5.317-12.872" fill="#4285F4"/><path d="M20.359 37.5c4.821 0 8.868-1.556 11.825-4.239l-5.635-4.278c-1.508 1.03-3.532 1.75-6.19 1.75a10.73 10.73 0 0 1-10.16-7.272l-.209.017-5.512 4.181-.072.196C7.343 33.572 13.374 37.5 20.36 37.5" fill="#34A853"/><path d="M10.198 23.461a10.6 10.6 0 0 1-.595-3.46c0-1.206.218-2.373.575-3.462l-.01-.232-5.58-4.247-.183.085A17.2 17.2 0 0 0 2.5 20c0 2.82.694 5.484 1.905 7.856z" fill="#FBBC05"/><path d="M20.359 9.267c3.353 0 5.615 1.42 6.904 2.605l5.04-4.822C29.208 4.23 25.18 2.5 20.36 2.5c-6.985 0-13.016 3.928-15.953 9.644l5.774 4.395c1.449-4.22 5.457-7.272 10.179-7.272" fill="#EB4335"/></svg>